<svg width="389" height="87" viewBox="0 0 389 87" fill="white" xmlns="http://www.w3.org/2000/svg">
<g clip-path="url(#clip0_3_12)">
<path d="M85.3275 16.4146L75.402 10.6686C74.538 9.03027 73.3468 7.56576 71.8687 6.35909C68.9717 3.99377 65.3272 2.89762 61.6059 3.27437C58.2784 3.61047 55.1777 5.12822 52.8756 7.5483C50.7221 9.81199 49.3879 12.7306 49.0822 15.8168L12.376 60.7741C12.096 61.1171 12.0024 61.5756 12.1259 62.0009C12.2494 62.4262 12.574 62.7633 12.9943 62.9031C14.6471 63.4523 16.3079 63.8996 17.97 64.2443L14.4914 67.1972C13.9245 67.6784 13.8551 68.5278 14.3363 69.0945C14.8176 69.6614 15.6668 69.731 16.2337 69.2496L21.4578 64.8149C22.0314 64.8839 22.6045 64.9407 23.1771 64.985C23.3602 64.9995 23.5431 65.0134 23.7257 65.0252C23.7642 65.0277 23.8023 65.0297 23.8408 65.0321C26.1753 65.1775 28.4627 65.1147 30.6901 64.8431C30.8586 64.8229 31.0259 64.8004 31.1934 64.7779C31.2386 64.7719 31.2839 64.7658 31.3289 64.7595C31.6649 64.8292 31.9993 64.8958 32.3315 64.9595C25.5646 74.0645 14.8817 79.7139 3.46735 80.0866L12.8744 72.1011C13.4412 71.6199 13.5106 70.7705 13.0294 70.2038C12.5485 69.6369 11.6991 69.5677 11.132 70.0487L0.799526 78.8198C0.0697082 79.4396 -0.188626 80.4207 0.141598 81.3193C0.471654 82.218 1.3036 82.7986 2.26101 82.7986C9.21334 82.7986 16.0814 80.9799 22.1223 77.5389C27.3654 74.5525 31.874 70.4062 35.2916 65.4555C37.7678 65.8084 40.1328 65.9871 42.3817 65.9871C43.5492 65.9871 44.685 65.9384 45.7901 65.8435V72.9853L41.0188 76.3823C40.4131 76.8135 40.2718 77.6541 40.7028 78.2597C41.1338 78.8652 41.9742 79.0068 42.58 78.5756L46.7421 75.6127L48.6013 78.6465C48.8553 79.0609 49.2974 79.2895 49.7502 79.2895C49.9901 79.2895 50.233 79.2255 50.4523 79.0908C51.0862 78.7022 51.2851 77.8735 50.8968 77.2398L50.1322 75.9923L53.343 76.9635L55.4248 79.9833C55.686 80.3621 56.1064 80.5655 56.5344 80.5655C56.798 80.5655 57.0639 80.4884 57.2972 80.3275C57.9092 79.9056 58.0636 79.0672 57.6413 78.4552L55.2921 75.0473C55.119 74.7962 54.8657 74.6111 54.5734 74.5229L50.1893 73.1968L54.1086 70.4065L55.9679 73.4403C56.2218 73.8547 56.6639 74.0835 57.1168 74.0833C57.3566 74.0833 57.5993 74.0193 57.8189 73.8848C58.4528 73.4963 58.6516 72.6675 58.2631 72.0336L57.4986 70.7861L60.7094 71.7573L62.7912 74.7772C63.0524 75.156 63.4728 75.3594 63.9008 75.3594C64.1643 75.3594 64.4302 75.2823 64.6635 75.1214C65.2756 74.6994 65.43 73.8611 65.0077 73.249L62.6585 69.8411C62.4853 69.59 62.232 69.4049 61.9398 69.3167L55.8484 67.4743V63.2835C57.3638 62.5801 58.7847 61.7396 60.1093 60.7623C68.7873 54.3596 71.4832 43.4829 72.2167 35.4858C72.2845 34.7454 71.7395 34.0903 70.9993 34.0223C70.258 33.9539 69.6038 34.4995 69.5358 35.2399C68.8525 42.6879 66.3852 52.7859 58.5109 58.5959C53.376 62.3844 46.542 63.8872 38.1309 63.086C39.6747 62.523 41.152 61.8456 42.5538 61.0575C42.5617 61.0529 42.5698 61.0482 42.5777 61.0439C42.8306 60.9014 43.0807 60.7553 43.3288 60.6056C43.3759 60.5772 43.4226 60.5487 43.4694 60.5201C43.6789 60.392 43.8865 60.2613 44.0922 60.1281C44.1566 60.0866 44.2209 60.0453 44.2849 60.0033C44.4766 59.877 44.6664 59.7478 44.8548 59.617C44.9215 59.5706 44.9892 59.5253 45.0555 59.4784C45.26 59.3339 45.4618 59.1861 45.6622 59.0365C45.7064 59.0034 45.7516 58.9716 45.7956 58.9386C46.0326 58.7592 46.2666 58.5759 46.4979 58.3893C46.5785 58.3241 46.6573 58.2566 46.7371 58.1908C46.8874 58.0666 47.0376 57.9422 47.1852 57.8149C47.2819 57.7314 47.377 57.6462 47.4728 57.5612C47.6018 57.4468 47.7308 57.3319 47.8577 57.2154C47.9555 57.1255 48.0522 57.0343 48.1488 56.9431C48.2726 56.8259 48.3956 56.7078 48.5175 56.588C48.6111 56.4963 48.704 56.4043 48.7962 56.3112C48.9213 56.1851 49.0448 56.0569 49.1677 55.9281C49.2525 55.8391 49.3379 55.7505 49.4217 55.6605C49.5572 55.5145 49.6904 55.3661 49.8231 55.2172C49.8911 55.1408 49.9602 55.0657 50.0275 54.9885C50.2262 54.7604 50.4223 54.5294 50.6144 54.2943C50.7473 54.1317 50.8781 53.9674 51.007 53.8021C51.0409 53.7586 51.0738 53.7141 51.1072 53.6706C51.202 53.5476 51.2964 53.4245 51.3891 53.3001C51.4245 53.2527 51.4586 53.2043 51.4936 53.1566C51.5836 53.034 51.6734 52.9112 51.7613 52.7873C51.793 52.7424 51.8239 52.6971 51.8554 52.6519C51.9454 52.5234 52.0351 52.3945 52.1228 52.2645C52.15 52.2242 52.1767 52.1834 52.2036 52.1428C52.2948 52.0062 52.3853 51.8693 52.474 51.7311C52.4956 51.6971 52.517 51.6629 52.5388 51.6288C52.6322 51.4823 52.7243 51.3352 52.8148 51.1869C52.8309 51.1605 52.8465 51.134 52.8625 51.1076C52.9581 50.95 53.052 50.7916 53.1445 50.6321C53.1549 50.6139 53.1653 50.5958 53.1757 50.5776C53.2735 50.4077 53.3697 50.237 53.4641 50.065C53.4685 50.0573 53.4725 50.0494 53.4769 50.0417C54.3596 48.4293 55.0847 46.728 55.6469 44.9534C57.4218 39.5188 57.5735 33.3885 56.0915 27.1447C55.2152 23.4073 53.7623 19.6979 51.7668 16.1417C51.7631 16.1348 51.7594 16.1281 51.7558 16.1212C52.2612 10.7471 56.4597 6.49984 61.8766 5.95261C64.8816 5.64926 67.8262 6.53394 70.1661 8.4444C71.4445 9.48832 72.4569 10.7713 73.1639 12.2094C73.1662 12.2143 73.1672 12.2193 73.1696 12.2242C73.3127 12.5158 73.4422 12.8129 73.5591 13.1142C73.566 13.1319 73.5727 13.1492 73.5796 13.1666C73.6288 13.2955 73.6748 13.4255 73.7193 13.5561C73.7336 13.5985 73.7479 13.6408 73.7616 13.6833C73.7986 13.7962 73.8335 13.9096 73.867 14.0238C73.8854 14.0873 73.9031 14.1514 73.9204 14.2154C73.9473 14.314 73.9736 14.4126 73.998 14.5121C74.0183 14.5955 74.0366 14.6797 74.0551 14.7638C74.0736 14.8482 74.0927 14.9325 74.1095 15.0175C74.1305 15.1245 74.1483 15.2323 74.1663 15.3403C74.1772 15.406 74.1896 15.4711 74.1995 15.5372C74.2254 15.7117 74.2477 15.887 74.2657 16.0636C74.2659 16.0651 74.2661 16.0664 74.2662 16.0681C74.2837 16.2409 74.2956 16.4134 74.3054 16.5858C74.3075 16.6259 74.3101 16.6664 74.3119 16.7065C74.3191 16.8641 74.3227 17.0215 74.3233 17.1785C74.3235 17.2346 74.3227 17.2909 74.3218 17.347C74.3206 17.4642 74.3171 17.5811 74.3121 17.6981C74.3084 17.7871 74.3035 17.8759 74.2975 17.9648C74.2909 18.0666 74.2827 18.1682 74.2733 18.2695C74.2661 18.3461 74.2587 18.4228 74.2499 18.4993C74.235 18.6301 74.2178 18.7608 74.198 18.891C74.1871 18.9647 74.1743 19.0381 74.1617 19.1115C74.1438 19.2165 74.1245 19.3215 74.1035 19.4261C74.0882 19.5022 74.0724 19.5783 74.0556 19.654C74.0275 19.7797 73.9978 19.905 73.9656 20.0298C73.9535 20.0765 73.9417 20.1233 73.9291 20.1697C73.8864 20.3264 73.8404 20.4823 73.7907 20.6376C73.136 22.6926 71.8959 24.5483 70.1687 25.9622C69.8332 26.237 69.6505 26.6564 69.678 27.0893C69.7306 27.9167 69.788 29.2592 69.7635 30.9554C69.7526 31.6988 70.3465 32.3102 71.09 32.3211C71.0967 32.3211 71.1032 32.3213 71.1099 32.3213C71.8441 32.3213 72.445 31.7316 72.4555 30.9948C72.4757 29.6137 72.4439 28.4517 72.4026 27.5913C74.0778 26.0766 75.3372 24.2083 76.1139 22.1541C79.4065 21.0023 85.0694 18.8619 85.1303 18.8391C85.6166 18.6553 85.9534 18.2078 85.9957 17.6897C86.037 17.1711 85.7774 16.6751 85.3275 16.4146ZM48.4821 65.5079C50.1171 65.2378 51.6758 64.8539 53.1566 64.3552V67.7793L48.4821 71.1073V65.5079ZM51.764 22.3764C51.8792 22.667 51.9928 22.9578 52.1004 23.2489L52.1523 23.3915C55.8772 33.5951 54.871 44.1299 49.1917 51.7425C49.1813 51.7564 49.1706 51.7704 49.16 51.7843C48.9556 52.0571 48.7458 52.3265 48.5293 52.5916C48.3804 52.7738 48.2289 52.9529 48.0758 53.1304C48.0291 53.1845 47.9815 53.2376 47.9343 53.2912C47.8243 53.4165 47.7136 53.5406 47.6014 53.6634C47.549 53.7208 47.4963 53.7778 47.4434 53.8345C47.3285 53.9578 47.2126 54.0799 47.0955 54.2007C47.0486 54.2489 47.0021 54.2976 46.9549 54.3455C46.8016 54.501 46.6469 54.6549 46.49 54.8064C46.4797 54.8163 46.4695 54.8267 46.4592 54.8366C46.2835 55.0054 46.1052 55.1717 45.9249 55.3355C45.9013 55.357 45.8771 55.3778 45.8534 55.3991C45.7015 55.5357 45.5482 55.6707 45.3932 55.8034C45.349 55.8412 45.3045 55.8789 45.26 55.9163C45.1205 56.0342 44.98 56.1505 44.838 56.2654C44.7913 56.303 44.7448 56.3409 44.6978 56.3784C44.5442 56.5008 44.3894 56.6213 44.233 56.74C44.2004 56.7647 44.1682 56.7901 44.1356 56.8149C43.9446 56.9587 43.7518 57.1 43.5568 57.2386C43.5309 57.2569 43.5044 57.2747 43.4783 57.293C43.3176 57.4062 43.1553 57.5179 42.9917 57.6276C42.9165 57.678 42.8404 57.7273 42.7646 57.7771C42.6513 57.8513 42.5372 57.9252 42.4225 57.9978C42.3277 58.0577 42.2325 58.1174 42.1369 58.1761C42.0457 58.2322 41.9537 58.2873 41.8616 58.3426C41.7474 58.4108 41.6335 58.4792 41.5183 58.5458C41.4735 58.5717 41.4279 58.5966 41.3829 58.6223C39.4879 59.7015 37.4318 60.5601 35.2373 61.1865C35.2353 61.187 35.2335 61.1871 35.2315 61.1876C34.7267 61.3321 34.2169 61.4626 33.7035 61.5817C33.5577 61.6153 33.4112 61.6474 33.2642 61.6789C33.197 61.6936 33.1297 61.7078 33.0623 61.7219C32.4365 61.8521 31.8012 61.965 31.1562 62.059C31.1206 62.0643 31.0857 62.0713 31.0513 62.0792C31.0197 62.0837 30.9879 62.0876 30.9564 62.0921C30.7382 62.1229 30.5191 62.1508 30.2996 62.1773C30.1453 62.1956 29.9902 62.2122 29.8347 62.2285C29.7356 62.2389 29.6365 62.2495 29.537 62.2591C29.3044 62.2811 29.0711 62.3011 28.8365 62.3186C28.8119 62.3204 28.7871 62.3223 28.7625 62.3241C27.9319 62.3837 27.0891 62.4138 26.235 62.4138C25.6671 62.4138 25.0975 62.399 24.5274 62.3723C24.3967 62.3661 24.2662 62.3599 24.1354 62.3521C24.0306 62.3461 23.9256 62.3394 23.8206 62.3325C22.9613 62.2747 22.0949 62.188 21.2215 62.0696C21.2158 62.069 21.2099 62.069 21.204 62.0681C19.3801 61.82 17.5514 61.4396 15.7276 60.9261L50.1312 18.7888C50.154 18.8332 50.178 18.8768 50.2004 18.9212C50.2471 19.0126 50.2906 19.1043 50.3364 19.1956C50.5748 19.672 50.8039 20.1519 51.0222 20.6343C51.0557 20.7079 51.0904 20.7813 51.1234 20.8548C51.1281 20.8661 51.1328 20.8775 51.1375 20.8886C51.225 21.0854 51.31 21.2842 51.3946 21.4829C51.444 21.5991 51.4936 21.7155 51.5416 21.8317C51.6173 22.0135 51.6918 22.1954 51.764 22.3764ZM76.9011 19.0156C77.0206 18.0985 77.0471 17.1695 76.9814 16.2346C76.9809 16.2273 76.9807 16.2201 76.9802 16.2131C76.9703 16.0746 76.9586 15.9361 76.9445 15.7973C76.9221 15.5776 76.8944 15.3593 76.862 15.1419C76.8497 15.059 76.8341 14.9772 76.8205 14.8948C76.8024 14.7863 76.7864 14.6772 76.7657 14.5692L81.5155 17.3188C80.1372 17.8323 78.4278 18.4647 76.9011 19.0156Z" fill="#B1F5E3"/>
<path d="M67.3748 15.22C68.3241 15.22 69.0936 14.4505 69.0936 13.5012C69.0936 12.5519 68.3241 11.7824 67.3748 11.7824C66.4255 11.7824 65.656 12.5519 65.656 13.5012C65.656 14.4505 66.4255 15.22 67.3748 15.22Z" fill="#B1F5E3"/>
</g>
<path d="M92.864 28.6C95.552 28.6 97.832 29.056 99.704 29.968C101.624 30.832 103.088 32.176 104.096 34C105.104 35.776 105.608 38.056 105.608 40.84C105.608 42.28 105.416 43.624 105.032 44.872C104.648 46.072 104.096 47.176 103.376 48.184C102.656 49.144 101.768 49.984 100.712 50.704C102.104 51.328 103.376 52.24 104.528 53.44C105.68 54.64 106.592 56.128 107.264 57.904C107.936 59.632 108.272 61.648 108.272 63.952C108.272 67.072 107.696 69.76 106.544 72.016C105.44 74.272 103.808 76 101.648 77.2C99.488 78.4 96.8 79 93.584 79H76.952V28.6H92.864ZM92.792 49.336C94.76 49.336 96.368 49 97.616 48.328C98.864 47.608 99.8 46.6 100.424 45.304C101.048 44.008 101.36 42.52 101.36 40.84C101.36 38.968 101.024 37.408 100.352 36.16C99.68 34.912 98.672 33.976 97.328 33.352C95.984 32.728 94.304 32.416 92.288 32.416H81.056V49.336H92.792ZM93.44 75.184C95.744 75.184 97.664 74.776 99.2 73.96C100.736 73.096 101.888 71.8 102.656 70.072C103.472 68.344 103.88 66.208 103.88 63.664C103.88 61.792 103.52 60.064 102.8 58.48C102.128 56.896 101.096 55.648 99.704 54.736C98.312 53.776 96.608 53.296 94.592 53.296H81.056V75.184H93.44ZM113.58 79V42.928H117.684V79H113.58ZM115.668 27.88C116.34 27.88 116.916 28.12 117.396 28.6C117.876 29.08 118.116 29.656 118.116 30.328C118.116 30.952 117.876 31.504 117.396 31.984C116.916 32.464 116.34 32.704 115.668 32.704C115.044 32.704 114.468 32.464 113.94 31.984C113.46 31.504 113.22 30.952 113.22 30.328C113.22 29.656 113.46 29.08 113.94 28.6C114.468 28.12 115.044 27.88 115.668 27.88ZM142.579 45.808C142.579 45.808 142.267 45.784 141.643 45.736C141.067 45.688 140.371 45.688 139.555 45.736C138.547 45.784 137.467 45.928 136.315 46.168C135.163 46.36 134.035 46.648 132.931 47.032C131.827 47.368 130.795 47.776 129.835 48.256C128.875 48.688 128.059 49.12 127.387 49.552V79H123.283V42.928H127.387V45.304C129.163 44.488 130.987 43.792 132.859 43.216C134.779 42.64 137.035 42.28 139.627 42.136C140.491 42.088 141.235 42.112 141.859 42.208C142.531 42.304 142.867 42.352 142.867 42.352L142.579 45.808ZM174.472 79C174.52 79 174.256 79.024 173.68 79.072C173.152 79.12 172.432 79.168 171.52 79.216C170.656 79.312 169.696 79.384 168.64 79.432C167.632 79.528 166.648 79.6 165.688 79.648C164.728 79.696 163.912 79.72 163.24 79.72C160.936 79.768 158.776 79.624 156.76 79.288C154.744 78.952 152.992 78.328 151.504 77.416C150.016 76.456 148.84 75.112 147.976 73.384C147.16 71.656 146.752 69.472 146.752 66.832V53.152C146.752 51.136 147.088 49.432 147.76 48.04C148.48 46.648 149.416 45.544 150.568 44.728C151.768 43.864 153.064 43.24 154.456 42.856C155.896 42.472 157.336 42.28 158.776 42.28C161.128 42.28 163.264 42.544 165.184 43.072C167.104 43.6 168.88 44.224 170.512 44.944V28.6H174.472V79ZM170.512 48.544C168.592 47.728 166.672 47.056 164.752 46.528C162.88 45.952 160.792 45.664 158.488 45.664C157.864 45.664 157.12 45.76 156.256 45.952C155.392 46.144 154.528 46.504 153.664 47.032C152.848 47.56 152.152 48.352 151.576 49.408C151 50.416 150.712 51.76 150.712 53.44V66.328C150.712 68.056 150.904 69.568 151.288 70.864C151.672 72.112 152.32 73.168 153.232 74.032C154.144 74.848 155.368 75.448 156.904 75.832C158.488 76.168 160.48 76.312 162.88 76.264C163.792 76.216 164.632 76.168 165.4 76.12C166.216 76.072 166.936 76.024 167.56 75.976C168.184 75.928 168.712 75.88 169.144 75.832C169.576 75.784 169.912 75.76 170.152 75.76C170.392 75.712 170.512 75.688 170.512 75.688V48.544ZM197.293 75.4C197.293 76.888 197.485 78.136 197.869 79.144C198.301 80.2 198.877 81.04 199.597 81.664C200.365 82.288 201.301 82.72 202.405 82.96C203.557 83.248 204.853 83.392 206.293 83.392L205.861 86.776C203.797 86.776 201.973 86.56 200.389 86.128C198.805 85.696 197.485 85.024 196.429 84.112C195.373 83.2 194.581 82 194.053 80.512C193.525 79.072 193.261 77.344 193.261 75.328V66.472H197.293V75.4ZM180.229 42.424C180.229 37.528 181.597 33.808 184.333 31.264C187.069 28.72 190.813 27.448 195.565 27.448C200.317 27.448 204.013 28.792 206.653 31.48C209.293 34.12 210.613 37.792 210.613 42.496V65.608C210.613 68.536 209.965 71.056 208.669 73.168C207.421 75.28 205.645 76.912 203.341 78.064C201.085 79.216 198.469 79.792 195.493 79.792C192.661 79.792 190.093 79.264 187.789 78.208C185.485 77.152 183.637 75.568 182.245 73.456C180.901 71.344 180.229 68.728 180.229 65.608V42.424ZM184.333 65.536C184.333 67.84 184.813 69.76 185.773 71.296C186.733 72.832 188.029 74.008 189.661 74.824C191.341 75.592 193.237 75.976 195.349 75.976C197.557 75.976 199.501 75.616 201.181 74.896C202.861 74.128 204.181 72.976 205.141 71.44C206.101 69.856 206.581 67.888 206.581 65.536V41.776C206.581 39.424 206.125 37.48 205.213 35.944C204.301 34.408 203.005 33.256 201.325 32.488C199.645 31.672 197.653 31.264 195.349 31.264C193.141 31.264 191.197 31.672 189.517 32.488C187.885 33.256 186.613 34.408 185.701 35.944C184.789 37.48 184.333 39.424 184.333 41.776V65.536ZM239.12 75.544C238.352 76.456 237.416 77.224 236.312 77.848C235.208 78.472 234.032 78.928 232.784 79.216C231.536 79.552 230.312 79.72 229.112 79.72C227.528 79.72 226.064 79.552 224.72 79.216C223.424 78.928 222.248 78.472 221.192 77.848C220.184 77.224 219.32 76.432 218.6 75.472C217.928 74.512 217.4 73.384 217.016 72.088C216.68 70.792 216.512 69.328 216.512 67.696V42.928H220.616V66.688C220.616 68.896 220.952 70.672 221.624 72.016C222.296 73.36 223.28 74.344 224.576 74.968C225.872 75.544 227.432 75.832 229.256 75.832C230.696 75.832 232.016 75.592 233.216 75.112C234.416 74.632 235.448 73.96 236.312 73.096C237.224 72.232 237.92 71.248 238.4 70.144C238.88 69.04 239.12 67.84 239.12 66.544V42.928H243.152V79H239.12V75.544ZM253.162 69.352C253.162 70.648 253.354 71.752 253.738 72.664C254.17 73.528 254.746 74.248 255.466 74.824C256.186 75.352 257.026 75.76 257.986 76.048C258.994 76.288 260.074 76.408 261.226 76.408C263.002 76.408 264.754 76.144 266.482 75.616C268.21 75.04 269.962 74.296 271.738 73.384L273.322 76.48C271.546 77.536 269.602 78.376 267.49 79C265.378 79.576 263.41 79.864 261.586 79.864C259.762 79.864 258.082 79.696 256.546 79.36C255.01 79.024 253.69 78.448 252.586 77.632C251.482 76.816 250.618 75.736 249.994 74.392C249.418 73.048 249.13 71.368 249.13 69.352V54.592C249.13 51.856 249.706 49.576 250.858 47.752C252.01 45.928 253.594 44.56 255.61 43.648C257.626 42.736 259.906 42.28 262.45 42.28C265.042 42.28 267.274 42.736 269.146 43.648C271.066 44.56 272.53 45.904 273.538 47.68C274.594 49.456 275.122 51.688 275.122 54.376V63.736L253.162 64.888V69.352ZM271.09 53.872C271.09 52.192 270.706 50.752 269.938 49.552C269.17 48.304 268.138 47.344 266.842 46.672C265.546 46 264.058 45.664 262.378 45.664C260.506 45.664 258.874 46.024 257.482 46.744C256.09 47.416 255.01 48.424 254.242 49.768C253.522 51.112 253.162 52.744 253.162 54.664V60.928L271.09 60.136V53.872ZM300.178 47.392C299.554 46.96 298.834 46.624 298.018 46.384C297.25 46.096 296.434 45.88 295.57 45.736C294.754 45.592 293.938 45.52 293.122 45.52C292.162 45.52 291.154 45.64 290.098 45.88C289.09 46.072 288.154 46.408 287.29 46.888C286.426 47.32 285.73 47.896 285.202 48.616C284.674 49.336 284.41 50.2 284.41 51.208C284.41 52.408 284.77 53.416 285.49 54.232C286.258 55.048 287.242 55.792 288.442 56.464C289.642 57.088 290.962 57.688 292.402 58.264C293.842 58.792 295.282 59.392 296.722 60.064C298.21 60.688 299.554 61.432 300.754 62.296C301.954 63.16 302.914 64.216 303.634 65.464C304.402 66.664 304.786 68.152 304.786 69.928C304.786 71.656 304.426 73.168 303.706 74.464C302.986 75.76 302.026 76.84 300.826 77.704C299.626 78.568 298.282 79.216 296.794 79.648C295.354 80.08 293.866 80.296 292.33 80.296C289.786 80.296 287.314 79.744 284.914 78.64C282.514 77.536 280.474 76.024 278.794 74.104L281.026 71.728C282.13 72.784 283.258 73.672 284.41 74.392C285.562 75.112 286.786 75.664 288.082 76.048C289.426 76.384 290.842 76.552 292.33 76.552C293.242 76.552 294.202 76.432 295.21 76.192C296.218 75.952 297.154 75.568 298.018 75.04C298.93 74.464 299.65 73.768 300.178 72.952C300.754 72.136 301.042 71.152 301.042 70C301.042 68.704 300.658 67.6 299.89 66.688C299.17 65.728 298.21 64.912 297.01 64.24C295.81 63.52 294.466 62.872 292.978 62.296C291.538 61.72 290.074 61.12 288.586 60.496C287.146 59.872 285.826 59.152 284.626 58.336C283.426 57.52 282.442 56.56 281.674 55.456C280.954 54.304 280.594 52.936 280.594 51.352C280.594 49.816 280.93 48.496 281.602 47.392C282.274 46.24 283.162 45.28 284.266 44.512C285.418 43.696 286.69 43.096 288.082 42.712C289.474 42.328 290.89 42.136 292.33 42.136C293.29 42.136 294.274 42.208 295.282 42.352C296.29 42.448 297.346 42.688 298.45 43.072C299.554 43.408 300.682 43.936 301.834 44.656L300.178 47.392ZM314.699 69.496C314.699 70.744 314.867 71.872 315.203 72.88C315.587 73.84 316.115 74.656 316.787 75.328C317.507 75.952 318.395 76.456 319.451 76.84L318.227 79.936C315.587 79.12 313.667 77.872 312.467 76.192C311.267 74.512 310.667 72.28 310.667 69.496V28.6H314.699V43H323.411L321.683 46.744H314.699V69.496Z" fill="#B1F5E3"/>
<defs>
<clipPath id="clip0_3_12">
<rect width="86" height="86" fill="white"/>
</clipPath>
</defs>
</svg>
